# xmcd
#
# Track frame offsets: 
#        150
#        11992
#        24772
#        35995
#        45889
#        57322
#        68980
#        80557
#        95229
#        106907
#        123735
#        156152
#        169820
#        201585
#        219542
#        233737
#        252082
#        262725
#
# Disc length: 3851 seconds
#
# Revision: 1
# Processed by: cddbd v1.5.2PL0 Copyright (c) Steve Scherf et al.
# Submitted via: ExactAudioCopy v1.1
#
DISCID=fd0f0912
DTITLE=Jo Armstead - A Stone Good Lover
DYEAR=1996
DGENRE=R&B
TTITLE0=Feel An Urge Coming On (mono)
TTITLE1=I Who Love You So (mono)
TTITLE2=A Stone Good Lover (mono)
TTITLE3=The Urge Keeps Coming (Dance, Dance, Dance) (inst) (mono)
TTITLE4=Another Reason Why I Love You (mono)
TTITLE5=There's Not Too Many More (Left Like Him) (mono)
TTITLE6=I've Been Turned On (mono)
TTITLE7=I'm Gonna Show You (How A Man Is Supposed To Be Treated) (mono
TTITLE7=)
TTITLE8=Never Had It Like This Before (mono)
TTITLE9=Ride Out The Storm
TTITLE10=Stepping Stones
TTITLE11=Got My Taste
TTITLE12=Won't You Join The Band
TTITLE13=Give A Litle Loving
TTITLE14=Living IN a Song
TTITLE15=Send It Up
TTITLE16=I Got The Vibes
TTITLE17=Say Thank You Tonight
EXTD=
EXTT0=
EXTT1=
EXTT2=
EXTT3=
EXTT4=
EXTT5=
EXTT6=
EXTT7=
EXTT8=
EXTT9=
EXTT10=
EXTT11=
EXTT12=
EXTT13=
EXTT14=
EXTT15=
EXTT16=
EXTT17=
PLAYORDER=
